<svg xmlns="http://www.w3.org/2000/svg" width="16" height="16" viewBox="0 0 16 16" fill="none">
  <path d="M7.33331 11.3333H8.66665V7.33334H7.33331V11.3333ZM7.99998 6.00001C8.18887 6.00001 8.3472 5.93612 8.47498 5.80834C8.60276 5.68057 8.66665 5.52223 8.66665 5.33334C8.66665 5.14445 8.60276 4.98612 8.47498 4.85834C8.3472 4.73057 8.18887 4.66668 7.99998 4.66668C7.81109 4.66668 7.65276 4.73057 7.52498 4.85834C7.3972 4.98612 7.33331 5.14445 7.33331 5.33334C7.33331 5.52223 7.3972 5.68057 7.52498 5.80834C7.65276 5.93612 7.81109 6.00001 7.99998 6.00001ZM7.99998 14.6667C7.07776 14.6667 6.21109 14.4917 5.39998 14.1417C4.58887 13.7917 3.88331 13.3167 3.28331 12.7167C2.68331 12.1167 2.20831 11.4111 1.85831 10.6C1.50831 9.7889 1.33331 8.92223 1.33331 8.00001C1.33331 7.07779 1.50831 6.21112 1.85831 5.40001C2.20831 4.5889 2.68331 3.88334 3.28331 3.28334C3.88331 2.68334 4.58887 2.20834 5.39998 1.85834C6.21109 1.50834 7.07776 1.33334 7.99998 1.33334C8.9222 1.33334 9.78887 1.50834 10.6 1.85834C11.4111 2.20834 12.1166 2.68334 12.7166 3.28334C13.3166 3.88334 13.7916 4.5889 14.1416 5.40001C14.4916 6.21112 14.6666 7.07779 14.6666 8.00001C14.6666 8.92223 14.4916 9.7889 14.1416 10.6C13.7916 11.4111 13.3166 12.1167 12.7166 12.7167C12.1166 13.3167 11.4111 13.7917 10.6 14.1417C9.78887 14.4917 8.9222 14.6667 7.99998 14.6667ZM7.99998 13.3333C9.48887 13.3333 10.75 12.8167 11.7833 11.7833C12.8166 10.75 13.3333 9.4889 13.3333 8.00001C13.3333 6.51112 12.8166 5.25001 11.7833 4.21668C10.75 3.18334 9.48887 2.66668 7.99998 2.66668C6.51109 2.66668 5.24998 3.18334 4.21665 4.21668C3.18331 5.25001 2.66665 6.51112 2.66665 8.00001C2.66665 9.4889 3.18331 10.75 4.21665 11.7833C5.24998 12.8167 6.51109 13.3333 7.99998 13.3333Z" fill="#1F1F1F"/>
</svg>